<svg width="140" height="43" viewBox="0 0 140 43" fill="none" xmlns="http://www.w3.org/2000/svg">
<g clip-path="url(#clip0_272_2)">
<path d="M104.437 40.9729C104.453 41.2787 104.378 41.5824 104.22 41.8446C104.063 42.1068 103.832 42.3156 103.556 42.444C103.28 42.5723 102.972 42.6144 102.672 42.5646C102.372 42.5149 102.094 42.3758 101.873 42.1651C101.653 41.9544 101.5 41.682 101.434 41.3829C101.369 41.0838 101.394 40.7718 101.506 40.4872C101.619 40.2026 101.813 39.9585 102.065 39.7863C102.316 39.6142 102.613 39.522 102.917 39.5216C103.112 39.5133 103.307 39.5446 103.49 39.6136C103.673 39.6826 103.84 39.7879 103.982 39.9233C104.123 40.0586 104.237 40.2212 104.315 40.4015C104.393 40.5818 104.435 40.7761 104.437 40.9729ZM101.622 40.9729C101.615 41.23 101.685 41.4832 101.822 41.7003C101.959 41.9174 102.157 42.0886 102.39 42.192C102.624 42.2954 102.883 42.3263 103.134 42.2809C103.385 42.2355 103.617 42.1157 103.801 41.9369C103.984 41.7581 104.111 41.5283 104.164 41.2768C104.218 41.0253 104.195 40.7635 104.101 40.5248C104.006 40.286 103.843 40.081 103.632 39.9361C103.421 39.7911 103.172 39.7126 102.917 39.7107C102.749 39.7042 102.582 39.7322 102.425 39.793C102.268 39.8537 102.126 39.9459 102.005 40.064C101.885 40.182 101.79 40.3235 101.726 40.4797C101.661 40.636 101.629 40.8037 101.631 40.9729H101.622ZM102.56 41.8144H102.344V40.1361H103.02C103.414 40.1361 103.592 40.2969 103.592 40.6089C103.593 40.7295 103.547 40.8456 103.465 40.9335C103.383 41.0214 103.271 41.0744 103.151 41.0816L103.686 41.8144H103.433L102.94 41.0674H102.574L102.56 41.8144ZM102.847 40.8689C103.114 40.8689 103.377 40.8689 103.377 40.5758C103.377 40.2827 103.17 40.2874 102.959 40.2874H102.56V40.8925L102.847 40.8689Z" fill="#292929"/>
<path d="M0 0.945524H14.0094C17.2631 0.927546 20.5079 1.28924 23.679 2.02339C26.5372 2.66593 29.2454 3.8586 31.6548 5.53589C33.9476 7.16322 35.8136 9.32742 37.0925 11.8423C38.4312 14.433 39.099 17.5767 39.0958 21.2736C39.159 24.2739 38.4921 27.2441 37.1535 29.9249C35.8817 32.3776 34.0892 34.5178 31.9035 36.1935C29.6212 37.9329 27.0443 39.24 24.2983 40.0511C21.365 40.9337 18.3185 41.3749 15.2574 41.3606H0V0.945524ZM9.34115 33.1395H14.1877C16.211 33.1545 18.2298 32.9436 20.2071 32.5108C21.9364 32.1506 23.5754 31.4414 25.0255 30.426C26.3955 29.4426 27.4975 28.1273 28.2299 26.6015C29.0595 24.7851 29.4594 22.7994 29.3981 20.8009C29.4408 19.009 29.0392 17.2346 28.2299 15.6385C27.4761 14.2 26.3998 12.9585 25.0865 12.0125C23.6835 11.0175 22.1105 10.2915 20.4464 9.87097C18.6196 9.3878 16.7379 9.14781 14.8492 9.15713H9.34115V33.1395Z" fill="#292929"/>
<path d="M85.2104 21.6376V27.3106H89.7614V42.4384H98.7319V17.6713L85.2104 21.6376Z" fill="#292929"/>
<path d="M71.4028 11.8896C72.5914 10.7114 74.0058 9.7897 75.5596 9.18074C77.2809 8.5161 79.1119 8.18722 80.9551 8.21161V8.25888C82.803 8.23269 84.6389 8.5616 86.3646 9.22801C87.2939 9.59243 88.176 10.0686 88.9919 10.6463L97.2634 5.6966C95.1742 3.8397 92.741 2.41778 90.1039 1.51279C87.1647 0.507347 84.0776 0.0118067 80.9739 0.0472803V5.67906e-06C77.8627 -0.032356 74.7688 0.469635 71.8251 1.48443C70.3101 2.015 68.8566 2.70925 67.4899 3.55506V10.6084H60.7292C60.4055 11.1946 60.1052 11.7998 59.8331 12.4332C58.6678 15.209 58.0878 18.1985 58.13 21.2121C58.0872 24.2273 58.6672 27.2185 59.8331 29.9958C60.9191 32.548 62.5405 34.8333 64.5858 36.6946C66.694 38.5839 69.1551 40.0304 71.8251 40.9493C74.7691 41.9624 77.863 42.4628 80.9739 42.429H87.8847V34.2127H80.9739C79.1244 34.2395 77.2868 33.9105 75.5596 33.2435C74.0039 32.6382 72.5889 31.716 71.4028 30.5347C70.2427 29.3681 69.3366 27.9705 68.7426 26.4312C68.1069 24.7731 67.7886 23.0086 67.8043 21.231C67.79 19.4536 68.1084 17.6894 68.7426 16.0308C69.3316 14.4779 70.238 13.067 71.4028 11.8896Z" fill="#292929"/>
<path d="M26.4471 0.945496C28.708 1.66968 30.848 2.73266 32.7949 4.09871C34.6025 5.38932 36.1714 6.98939 37.4303 8.82617H43.8016V41.3606H53.1381V8.81672H65.6086V0.945496H26.4471Z" fill="#292929"/>
<path d="M109.204 0.685486L69.8123 24.2802L100.609 15.2508V27.2916L140 3.69688L109.204 12.7263V0.685486Z" fill="#6ADC12"/>
</g>
<defs>
<clipPath id="clip0_272_2">
<rect width="140" height="42.4242" fill="white"/>
</clipPath>
</defs>
</svg>
